<svg width="54" height="53" viewBox="0 0 54 53" fill="none" xmlns="http://www.w3.org/2000/svg">
<g opacity="0.1">
<path d="M14.4656 1.3915C14.7607 0.622997 15.623 0.23927 16.3915 0.534424L51.8827 14.1653C52.6513 14.4605 53.035 15.3227 52.7398 16.0912L39.109 51.5825C38.8138 52.351 37.9515 52.7347 37.183 52.4395L1.69178 38.8087C0.923276 38.5135 0.539548 37.6513 0.834704 36.8827L14.4656 1.3915Z" fill="url(#paint0_linear_554_22242)"/>
<g clip-path="url(#clip0_554_22242)">
<path d="M27.0202 14.426C24.503 14.3611 22.0196 15.1188 19.935 16.588C17.8503 18.0571 16.2742 20.1602 15.4382 22.5884C14.6022 25.0166 14.5503 27.6418 15.2901 30.0784C16.03 32.5151 17.5226 34.6348 19.5488 36.1261C21.199 37.3156 23.1146 38.0755 25.1309 38.3406C26.9506 38.5987 28.8121 38.3709 30.5331 37.6796C32.3386 36.9226 33.9142 35.6826 35.0906 34.0931C36.3695 32.3643 37.246 30.3665 37.6531 28.2529L27.342 24.2938L25.663 28.6666L31.6345 30.9594C31.2474 31.611 30.736 32.1785 30.1311 32.6278C29.5262 33.0771 28.8401 33.3991 28.1139 33.5744C27.1954 33.7878 26.246 33.804 25.3267 33.6219C24.399 33.4543 23.5122 33.1139 22.7108 32.6175C21.9055 32.096 21.2186 31.408 20.6937 30.5973C19.8482 29.3004 19.4313 27.7591 19.5024 26.1934C19.5758 24.5986 20.1646 23.0653 21.1773 21.8312C21.8868 20.9661 22.7771 20.2722 23.7816 19.8012C24.9371 19.2466 26.2159 19.024 27.4777 19.1579C28.7394 19.2918 29.9354 19.777 30.9343 20.5602C31.7126 21.1775 32.3355 21.9734 32.7533 22.8844C33.6895 22.4581 34.6253 22.0296 35.5606 21.5989C36.0492 21.3618 36.5622 21.1543 37.049 20.9064C36.4008 19.5429 35.4925 18.3267 34.376 17.3276C32.3346 15.5297 29.7387 14.5057 27.0202 14.426Z" fill="#F0F1F5"/>
<path d="M27.9668 14.7424C30.7505 14.9122 33.4422 15.9705 35.5938 17.741C36.77 18.7278 37.7398 19.9124 38.4479 21.2268C37.9532 21.4421 37.4476 21.6267 36.9495 21.8294C36.0074 22.2011 35.0667 22.5709 34.1275 22.9388C33.6683 22.0631 33.0033 21.2889 32.1855 20.6781C31.137 19.9018 29.8971 19.4001 28.6017 19.2281C27.3064 19.0561 26.0058 19.2204 24.8424 19.7031C23.8313 20.1132 22.9449 20.738 22.2493 21.531L19.5444 17.453C21.8092 15.536 24.8291 14.5641 27.9668 14.7424Z" fill="#E33629"/>
<path d="M16.9429 19.2785C17.4806 18.4435 18.1324 17.6853 18.8809 17.0241L21.3879 21.0211C20.4233 22.1568 19.8769 23.5798 19.8336 25.0692C18.3234 25.4952 16.811 25.9253 15.2963 26.3596C15.0151 23.8684 15.5947 21.3757 16.9429 19.2785Z" fill="#F8BD00"/>
<path d="M28.7971 24.0451L38.8619 27.9096C38.47 29.9585 37.62 31.894 36.377 33.5677C35.2336 35.1066 33.7 36.3054 31.9411 37.0353C31.1538 35.7051 30.3587 34.3799 29.5714 33.0497C30.2797 32.8811 30.9484 32.57 31.5375 32.1351C32.1266 31.7001 32.624 31.1503 32.9997 30.5185L27.1709 28.2804C27.7109 26.8691 28.2548 25.4574 28.7971 24.0451Z" fill="#587DBD"/>
<path d="M15.357 28.3582C16.9405 27.9558 18.5252 27.5487 20.1109 27.137C20.0951 28.6167 20.5797 30.0906 21.4955 31.348C22.0664 32.1326 22.799 32.8062 23.6465 33.3259C24.4867 33.8244 25.4088 34.1784 26.3667 34.3704C27.3165 34.5757 28.2901 34.5946 29.2249 34.4258C30.0991 35.7505 30.9813 37.0706 31.8555 38.3953C30.1146 38.9881 28.2125 39.1372 26.3357 38.8279C24.2572 38.5045 22.2643 37.7165 20.5283 36.5317C19.16 35.5823 17.9996 34.3891 17.1197 33.0271C16.1873 31.5884 15.5861 29.9959 15.357 28.3582Z" fill="#319F43"/>
</g>
</g>
<defs>
<linearGradient id="paint0_linear_554_22242" x1="17.6579" y1="1.02081" x2="37.962" y2="54.5687" gradientUnits="userSpaceOnUse">
<stop stop-color="#4A4F5C"/>
<stop offset="1" stop-color="#08090A"/>
</linearGradient>
<clipPath id="clip0_554_22242">
<rect width="24" height="24" fill="white" transform="translate(19.8862 10.983) rotate(21.0052)"/>
</clipPath>
</defs>
</svg>
