<svg width="96" height="16" viewBox="0 0 96 16" fill="none" xmlns="http://www.w3.org/2000/svg">
<g id="star">
<g id="star1">
<path id="Icon" d="M7.52193 2.30205C7.67559 1.99076 7.75242 1.83511 7.85672 1.78538C7.94746 1.74211 8.05289 1.74211 8.14363 1.78538C8.24793 1.83511 8.32476 1.99076 8.47842 2.30205L9.9362 5.25536C9.98157 5.34726 10.0042 5.39321 10.0374 5.42889C10.0667 5.46048 10.1019 5.48607 10.141 5.50425C10.1852 5.52479 10.2359 5.5322 10.3373 5.54702L13.5982 6.02364C13.9415 6.07383 14.1132 6.09893 14.1927 6.1828C14.2618 6.25577 14.2943 6.35603 14.2812 6.45569C14.266 6.57022 14.1417 6.69129 13.8931 6.93342L11.5345 9.23078C11.4609 9.3024 11.4242 9.33821 11.4004 9.38081C11.3794 9.41854 11.366 9.45998 11.3608 9.50284C11.3549 9.55125 11.3636 9.60183 11.3809 9.703L11.9375 12.9479C11.9962 13.2902 12.0255 13.4613 11.9704 13.5628C11.9224 13.6512 11.8371 13.7132 11.7382 13.7315C11.6246 13.7525 11.4709 13.6717 11.1636 13.5101L8.24841 11.9771C8.15758 11.9293 8.11217 11.9054 8.06432 11.896C8.02196 11.8877 7.97839 11.8877 7.93602 11.896C7.88818 11.9054 7.84276 11.9293 7.75193 11.9771L4.83678 13.5101C4.52944 13.6717 4.37577 13.7525 4.26214 13.7315C4.16328 13.7132 4.07798 13.6512 4.02999 13.5628C3.97483 13.4613 4.00418 13.2902 4.06288 12.9479L4.61942 9.703C4.63677 9.60183 4.64545 9.55125 4.63958 9.50284C4.63438 9.45998 4.6209 9.41854 4.5999 9.38081C4.57618 9.33821 4.53941 9.3024 4.46589 9.23078L2.1072 6.93342C1.8586 6.69129 1.73431 6.57022 1.71918 6.45569C1.70602 6.35603 1.73853 6.25577 1.80766 6.1828C1.88712 6.09893 2.05881 6.07383 2.40219 6.02364L5.66304 5.54702C5.76445 5.5322 5.81515 5.52479 5.85931 5.50425C5.89841 5.48607 5.9336 5.46048 5.96295 5.42889C5.9961 5.39321 6.01878 5.34726 6.06415 5.25536L7.52193 2.30205Z" fill="#F68026" stroke="#F68026" stroke-linecap="round" stroke-linejoin="round"/>
</g>
<g id="star2">
<path id="Icon_2" d="M27.5219 2.30205C27.6756 1.99076 27.7524 1.83511 27.8567 1.78538C27.9475 1.74211 28.0529 1.74211 28.1436 1.78538C28.2479 1.83511 28.3248 1.99076 28.4784 2.30205L29.9362 5.25536C29.9816 5.34726 30.0042 5.39321 30.0374 5.42889C30.0667 5.46048 30.1019 5.48607 30.141 5.50425C30.1852 5.52479 30.2359 5.5322 30.3373 5.54702L33.5982 6.02364C33.9415 6.07383 34.1132 6.09893 34.1927 6.1828C34.2618 6.25577 34.2943 6.35603 34.2812 6.45569C34.266 6.57022 34.1417 6.69129 33.8931 6.93342L31.5345 9.23078C31.4609 9.3024 31.4242 9.33821 31.4004 9.38081C31.3794 9.41854 31.366 9.45998 31.3608 9.50284C31.3549 9.55125 31.3636 9.60183 31.3809 9.703L31.9375 12.9479C31.9962 13.2902 32.0255 13.4613 31.9704 13.5628C31.9224 13.6512 31.8371 13.7132 31.7382 13.7315C31.6246 13.7525 31.4709 13.6717 31.1636 13.5101L28.2484 11.9771C28.1576 11.9293 28.1122 11.9054 28.0643 11.896C28.022 11.8877 27.9784 11.8877 27.936 11.896C27.8882 11.9054 27.8428 11.9293 27.7519 11.9771L24.8368 13.5101C24.5294 13.6717 24.3758 13.7525 24.2621 13.7315C24.1633 13.7132 24.078 13.6512 24.03 13.5628C23.9748 13.4613 24.0042 13.2902 24.0629 12.9479L24.6194 9.703C24.6368 9.60183 24.6454 9.55125 24.6396 9.50284C24.6344 9.45998 24.6209 9.41854 24.5999 9.38081C24.5762 9.33821 24.5394 9.3024 24.4659 9.23078L22.1072 6.93342C21.8586 6.69129 21.7343 6.57022 21.7192 6.45569C21.706 6.35603 21.7385 6.25577 21.8077 6.1828C21.8871 6.09893 22.0588 6.07383 22.4022 6.02364L25.663 5.54702C25.7644 5.5322 25.8151 5.52479 25.8593 5.50425C25.8984 5.48607 25.9336 5.46048 25.963 5.42889C25.9961 5.39321 26.0188 5.34726 26.0641 5.25536L27.5219 2.30205Z" fill="#F68026" stroke="#F68026" stroke-linecap="round" stroke-linejoin="round"/>
</g>
<g id="star3">
<path id="Icon_3" d="M47.5219 2.30205C47.6756 1.99076 47.7524 1.83511 47.8567 1.78538C47.9475 1.74211 48.0529 1.74211 48.1436 1.78538C48.2479 1.83511 48.3248 1.99076 48.4784 2.30205L49.9362 5.25536C49.9816 5.34726 50.0042 5.39321 50.0374 5.42889C50.0667 5.46048 50.1019 5.48607 50.141 5.50425C50.1852 5.52479 50.2359 5.5322 50.3373 5.54702L53.5982 6.02364C53.9415 6.07383 54.1132 6.09893 54.1927 6.1828C54.2618 6.25577 54.2943 6.35603 54.2812 6.45569C54.266 6.57022 54.1417 6.69129 53.8931 6.93342L51.5345 9.23078C51.4609 9.3024 51.4242 9.33821 51.4004 9.38081C51.3794 9.41854 51.366 9.45998 51.3608 9.50284C51.3549 9.55125 51.3636 9.60183 51.3809 9.703L51.9375 12.9479C51.9962 13.2902 52.0255 13.4613 51.9704 13.5628C51.9224 13.6512 51.8371 13.7132 51.7382 13.7315C51.6246 13.7525 51.4709 13.6717 51.1636 13.5101L48.2484 11.9771C48.1576 11.9293 48.1122 11.9054 48.0643 11.896C48.022 11.8877 47.9784 11.8877 47.936 11.896C47.8882 11.9054 47.8428 11.9293 47.7519 11.9771L44.8368 13.5101C44.5294 13.6717 44.3758 13.7525 44.2621 13.7315C44.1633 13.7132 44.078 13.6512 44.03 13.5628C43.9748 13.4613 44.0042 13.2902 44.0629 12.9479L44.6194 9.703C44.6368 9.60183 44.6454 9.55125 44.6396 9.50284C44.6344 9.45998 44.6209 9.41854 44.5999 9.38081C44.5762 9.33821 44.5394 9.3024 44.4659 9.23078L42.1072 6.93342C41.8586 6.69129 41.7343 6.57022 41.7192 6.45569C41.706 6.35603 41.7385 6.25577 41.8077 6.1828C41.8871 6.09893 42.0588 6.07383 42.4022 6.02364L45.663 5.54702C45.7644 5.5322 45.8151 5.52479 45.8593 5.50425C45.8984 5.48607 45.9336 5.46048 45.963 5.42889C45.9961 5.39321 46.0188 5.34726 46.0641 5.25536L47.5219 2.30205Z" fill="#F68026" stroke="#F68026" stroke-linecap="round" stroke-linejoin="round"/>
</g>
<g id="star4">
<path id="Icon_4" d="M67.5219 2.30205C67.6756 1.99076 67.7524 1.83511 67.8567 1.78538C67.9475 1.74211 68.0529 1.74211 68.1436 1.78538C68.2479 1.83511 68.3248 1.99076 68.4784 2.30205L69.9362 5.25536C69.9816 5.34726 70.0042 5.39321 70.0374 5.42889C70.0667 5.46048 70.1019 5.48607 70.141 5.50425C70.1852 5.52479 70.2359 5.5322 70.3373 5.54702L73.5982 6.02364C73.9415 6.07383 74.1132 6.09893 74.1927 6.1828C74.2618 6.25577 74.2943 6.35603 74.2812 6.45569C74.266 6.57022 74.1417 6.69129 73.8931 6.93342L71.5345 9.23078C71.4609 9.3024 71.4242 9.33821 71.4004 9.38081C71.3794 9.41854 71.366 9.45998 71.3608 9.50284C71.3549 9.55125 71.3636 9.60183 71.3809 9.703L71.9375 12.9479C71.9962 13.2902 72.0255 13.4613 71.9704 13.5628C71.9224 13.6512 71.8371 13.7132 71.7382 13.7315C71.6246 13.7525 71.4709 13.6717 71.1636 13.5101L68.2484 11.9771C68.1576 11.9293 68.1122 11.9054 68.0643 11.896C68.022 11.8877 67.9784 11.8877 67.936 11.896C67.8882 11.9054 67.8428 11.9293 67.7519 11.9771L64.8368 13.5101C64.5294 13.6717 64.3758 13.7525 64.2621 13.7315C64.1633 13.7132 64.078 13.6512 64.03 13.5628C63.9748 13.4613 64.0042 13.2902 64.0629 12.9479L64.6194 9.703C64.6368 9.60183 64.6454 9.55125 64.6396 9.50284C64.6344 9.45998 64.6209 9.41854 64.5999 9.38081C64.5762 9.33821 64.5394 9.3024 64.4659 9.23078L62.1072 6.93342C61.8586 6.69129 61.7343 6.57022 61.7192 6.45569C61.706 6.35603 61.7385 6.25577 61.8077 6.1828C61.8871 6.09893 62.0588 6.07383 62.4022 6.02364L65.663 5.54702C65.7644 5.5322 65.8151 5.52479 65.8593 5.50425C65.8984 5.48607 65.9336 5.46048 65.963 5.42889C65.9961 5.39321 66.0188 5.34726 66.0641 5.25536L67.5219 2.30205Z" fill="#F68026" stroke="#F68026" stroke-linecap="round" stroke-linejoin="round"/>
</g>
<g id="star5">
<path id="Icon_5" d="M87.5219 2.30205C87.6756 1.99076 87.7524 1.83511 87.8567 1.78538C87.9475 1.74211 88.0529 1.74211 88.1436 1.78538C88.2479 1.83511 88.3248 1.99076 88.4784 2.30205L89.9362 5.25536C89.9816 5.34726 90.0042 5.39321 90.0374 5.42889C90.0667 5.46048 90.1019 5.48607 90.141 5.50425C90.1852 5.52479 90.2359 5.5322 90.3373 5.54702L93.5982 6.02364C93.9415 6.07383 94.1132 6.09893 94.1927 6.1828C94.2618 6.25577 94.2943 6.35603 94.2812 6.45569C94.266 6.57022 94.1417 6.69129 93.8931 6.93342L91.5345 9.23078C91.4609 9.3024 91.4242 9.33821 91.4004 9.38081C91.3794 9.41854 91.366 9.45998 91.3608 9.50284C91.3549 9.55125 91.3636 9.60183 91.3809 9.703L91.9375 12.9479C91.9962 13.2902 92.0255 13.4613 91.9704 13.5628C91.9224 13.6512 91.8371 13.7132 91.7382 13.7315C91.6246 13.7525 91.4709 13.6717 91.1636 13.5101L88.2484 11.9771C88.1576 11.9293 88.1122 11.9054 88.0643 11.896C88.022 11.8877 87.9784 11.8877 87.936 11.896C87.8882 11.9054 87.8428 11.9293 87.7519 11.9771L84.8368 13.5101C84.5294 13.6717 84.3758 13.7525 84.2621 13.7315C84.1633 13.7132 84.078 13.6512 84.03 13.5628C83.9748 13.4613 84.0042 13.2902 84.0629 12.9479L84.6194 9.703C84.6368 9.60183 84.6454 9.55125 84.6396 9.50284C84.6344 9.45998 84.6209 9.41854 84.5999 9.38081C84.5762 9.33821 84.5394 9.3024 84.4659 9.23078L82.1072 6.93342C81.8586 6.69129 81.7343 6.57022 81.7192 6.45569C81.706 6.35603 81.7385 6.25577 81.8077 6.1828C81.8871 6.09893 82.0588 6.07383 82.4022 6.02364L85.663 5.54702C85.7644 5.5322 85.8151 5.52479 85.8593 5.50425C85.8984 5.48607 85.9336 5.46048 85.963 5.42889C85.9961 5.39321 86.0188 5.34726 86.0641 5.25536L87.5219 2.30205Z" fill="#F68026" stroke="#F68026" stroke-linecap="round" stroke-linejoin="round"/>
</g>
</g>
</svg>
