<svg width="22" height="22" viewBox="0 0 22 22" fill="none" xmlns="http://www.w3.org/2000/svg">
<path d="M20 20H3.6C3.03995 20 2.75992 20 2.54601 19.891C2.35785 19.7951 2.20487 19.6422 2.10899 19.454C2 19.2401 2 18.9601 2 18.4V2M20 6L14.5657 11.4343C14.3677 11.6323 14.2687 11.7313 14.1545 11.7684C14.0541 11.8011 13.9459 11.8011 13.8455 11.7684C13.7313 11.7313 13.6323 11.6323 13.4343 11.4343L11.5657 9.56569C11.3677 9.36768 11.2687 9.26867 11.1545 9.23158C11.0541 9.19895 10.9459 9.19895 10.8455 9.23158C10.7313 9.26867 10.6323 9.36768 10.4343 9.56569L6 14M20 6H16M20 6V10" stroke="#F68026" strokeWidth="2.5" strokeLinecap="round" strokeLinejoin="round"/>
</svg>
