<svg width="23" height="23" viewBox="0 0 23 23" fill="none" xmlns="http://www.w3.org/2000/svg">
<path d="M11 14.5L8 11.5M11 14.5C12.3968 13.9687 13.7369 13.2987 15 12.5M11 14.5V19.5C11 19.5 14.03 18.95 15 17.5C16.08 15.88 15 12.5 15 12.5M8 11.5C8.53214 10.1194 9.2022 8.79607 10 7.55C11.1652 5.68699 12.7876 4.15305 14.713 3.0941C16.6384 2.03514 18.8027 1.48637 21 1.5C21 4.22 20.22 9 15 12.5M8 11.5H3C3 11.5 3.55 8.47 5 7.5C6.62 6.42 10 7.5 10 7.5M3.5 16C2 17.26 1.5 21 1.5 21C1.5 21 5.24 20.5 6.5 19C7.21 18.16 7.2 16.87 6.41 16.09C6.02131 15.719 5.50929 15.5046 4.97223 15.488C4.43516 15.4714 3.91088 15.6537 3.5 16Z" stroke="#F68026" strokeWidth="2.5" strokeLinecap="round" strokeLinejoin="round"/>
</svg>
