<svg width="52" height="10" viewBox="0 0 52 10" fill="none" xmlns="http://www.w3.org/2000/svg">
<g clip-path="url(#clip0_940_4713)">
<path d="M4.70102 1.4389C4.79706 1.24434 4.84508 1.14707 4.91026 1.11598C4.96698 1.08894 5.03287 1.08894 5.08959 1.11598C5.15477 1.14707 5.20279 1.24434 5.29883 1.4389L6.20994 3.28472C6.2383 3.34216 6.25247 3.37088 6.27319 3.39318C6.29153 3.41292 6.31353 3.42892 6.33797 3.44028C6.36557 3.45311 6.39726 3.45775 6.46064 3.46701L8.49867 3.7649C8.71328 3.79627 8.82058 3.81195 8.87024 3.86437C8.91345 3.90998 8.93377 3.97264 8.92555 4.03493C8.91609 4.10651 8.83841 4.18218 8.68303 4.33351L7.20886 5.76936C7.1629 5.81412 7.13992 5.8365 7.1251 5.86313C7.11197 5.88671 7.10355 5.91261 7.1003 5.9394C7.09663 5.96965 7.10205 6.00127 7.1129 6.06449L7.46074 8.09257C7.49742 8.30647 7.51577 8.41343 7.48129 8.47689C7.4513 8.53211 7.39798 8.57085 7.33619 8.5823C7.26518 8.59547 7.16914 8.54496 6.97705 8.44394L5.15508 7.48578C5.09831 7.45593 5.06992 7.441 5.04002 7.43514C5.01354 7.42995 4.98631 7.42995 4.95983 7.43514C4.92993 7.441 4.90154 7.45593 4.84478 7.48578L3.0228 8.44394C2.83072 8.54496 2.73467 8.59547 2.66366 8.5823C2.60187 8.57085 2.54855 8.53211 2.51856 8.47689C2.48409 8.41343 2.50243 8.30647 2.53912 8.09257L2.88695 6.06449C2.8978 6.00127 2.90322 5.96965 2.89955 5.9394C2.8963 5.91261 2.88788 5.88671 2.87475 5.86313C2.85993 5.8365 2.83695 5.81412 2.791 5.76936L1.31682 4.33351C1.16144 4.18218 1.08376 4.10651 1.0743 4.03493C1.06608 3.97264 1.0864 3.90998 1.12961 3.86437C1.17927 3.81195 1.28657 3.79627 1.50119 3.7649L3.53921 3.46701C3.6026 3.45775 3.63429 3.45311 3.66188 3.44028C3.68632 3.42892 3.70832 3.41292 3.72666 3.39318C3.74738 3.37088 3.76156 3.34216 3.78991 3.28472L4.70102 1.4389Z" fill="#F68026" stroke="#F68026" stroke-linecap="round" stroke-linejoin="round"/>
</g>
<g clip-path="url(#clip1_940_4713)">
<path d="M18.701 1.4389C18.7971 1.24434 18.8451 1.14707 18.9103 1.11598C18.967 1.08894 19.0329 1.08894 19.0896 1.11598C19.1548 1.14707 19.2028 1.24434 19.2988 1.4389L20.2099 3.28472C20.2383 3.34216 20.2525 3.37088 20.2732 3.39318C20.2915 3.41292 20.3135 3.42892 20.338 3.44028C20.3656 3.45311 20.3973 3.45775 20.4606 3.46701L22.4987 3.7649C22.7133 3.79627 22.8206 3.81195 22.8702 3.86437C22.9135 3.90998 22.9338 3.97264 22.9255 4.03493C22.9161 4.10651 22.8384 4.18218 22.683 4.33351L21.2089 5.76936C21.1629 5.81412 21.1399 5.8365 21.1251 5.86313C21.112 5.88671 21.1035 5.91261 21.1003 5.9394C21.0966 5.96965 21.1021 6.00127 21.1129 6.06449L21.4607 8.09257C21.4974 8.30647 21.5158 8.41343 21.4813 8.47689C21.4513 8.53211 21.398 8.57085 21.3362 8.5823C21.2652 8.59547 21.1691 8.54496 20.977 8.44394L19.1551 7.48578C19.0983 7.45593 19.0699 7.441 19.04 7.43514C19.0135 7.42995 18.9863 7.42995 18.9598 7.43514C18.9299 7.441 18.9015 7.45593 18.8448 7.48578L17.0228 8.44394C16.8307 8.54496 16.7347 8.59547 16.6637 8.5823C16.6019 8.57085 16.5486 8.53211 16.5186 8.47689C16.4841 8.41343 16.5024 8.30647 16.5391 8.09257L16.887 6.06449C16.8978 6.00127 16.9032 5.96965 16.8996 5.9394C16.8963 5.91261 16.8879 5.88671 16.8748 5.86313C16.8599 5.8365 16.837 5.81412 16.791 5.76936L15.3168 4.33351C15.1614 4.18218 15.0838 4.10651 15.0743 4.03493C15.0661 3.97264 15.0864 3.90998 15.1296 3.86437C15.1793 3.81195 15.2866 3.79627 15.5012 3.7649L17.5392 3.46701C17.6026 3.45775 17.6343 3.45311 17.6619 3.44028C17.6863 3.42892 17.7083 3.41292 17.7267 3.39318C17.7474 3.37088 17.7616 3.34216 17.7899 3.28472L18.701 1.4389Z" fill="#F68026" stroke="#F68026" stroke-linecap="round" stroke-linejoin="round"/>
</g>
<g clip-path="url(#clip2_940_4713)">
<path d="M32.701 1.4389C32.7971 1.24434 32.8451 1.14707 32.9103 1.11598C32.967 1.08894 33.0329 1.08894 33.0896 1.11598C33.1548 1.14707 33.2028 1.24434 33.2988 1.4389L34.2099 3.28472C34.2383 3.34216 34.2525 3.37088 34.2732 3.39318C34.2915 3.41292 34.3135 3.42892 34.338 3.44028C34.3656 3.45311 34.3973 3.45775 34.4606 3.46701L36.4987 3.7649C36.7133 3.79627 36.8206 3.81195 36.8702 3.86437C36.9135 3.90998 36.9338 3.97264 36.9255 4.03493C36.9161 4.10651 36.8384 4.18218 36.683 4.33351L35.2089 5.76936C35.1629 5.81412 35.1399 5.8365 35.1251 5.86313C35.112 5.88671 35.1035 5.91261 35.1003 5.9394C35.0966 5.96965 35.1021 6.00127 35.1129 6.06449L35.4607 8.09257C35.4974 8.30647 35.5158 8.41343 35.4813 8.47689C35.4513 8.53211 35.398 8.57085 35.3362 8.5823C35.2652 8.59547 35.1691 8.54496 34.977 8.44394L33.1551 7.48578C33.0983 7.45593 33.0699 7.441 33.04 7.43514C33.0135 7.42995 32.9863 7.42995 32.9598 7.43514C32.9299 7.441 32.9015 7.45593 32.8448 7.48578L31.0228 8.44394C30.8307 8.54496 30.7347 8.59547 30.6637 8.5823C30.6019 8.57085 30.5486 8.53211 30.5186 8.47689C30.4841 8.41343 30.5024 8.30647 30.5391 8.09257L30.887 6.06449C30.8978 6.00127 30.9032 5.96965 30.8996 5.9394C30.8963 5.91261 30.8879 5.88671 30.8748 5.86313C30.8599 5.8365 30.837 5.81412 30.791 5.76936L29.3168 4.33351C29.1614 4.18218 29.0838 4.10651 29.0743 4.03493C29.0661 3.97264 29.0864 3.90998 29.1296 3.86437C29.1793 3.81195 29.2866 3.79627 29.5012 3.7649L31.5392 3.46701C31.6026 3.45775 31.6343 3.45311 31.6619 3.44028C31.6863 3.42892 31.7083 3.41292 31.7267 3.39318C31.7474 3.37088 31.7616 3.34216 31.7899 3.28472L32.701 1.4389Z" fill="#F68026" stroke="#F68026" stroke-linecap="round" stroke-linejoin="round"/>
</g>
<g clip-path="url(#clip3_940_4713)">
<path d="M46.701 1.4389C46.7971 1.24434 46.8451 1.14707 46.9103 1.11598C46.967 1.08894 47.0329 1.08894 47.0896 1.11598C47.1548 1.14707 47.2028 1.24434 47.2988 1.4389L48.2099 3.28472C48.2383 3.34216 48.2525 3.37088 48.2732 3.39318C48.2915 3.41292 48.3135 3.42892 48.338 3.44028C48.3656 3.45311 48.3973 3.45775 48.4606 3.46701L50.4987 3.7649C50.7133 3.79627 50.8206 3.81195 50.8702 3.86437C50.9135 3.90998 50.9338 3.97264 50.9255 4.03493C50.9161 4.10651 50.8384 4.18218 50.683 4.33351L49.2089 5.76936C49.1629 5.81412 49.1399 5.8365 49.1251 5.86313C49.112 5.88671 49.1035 5.91261 49.1003 5.9394C49.0966 5.96965 49.1021 6.00127 49.1129 6.06449L49.4607 8.09257C49.4974 8.30647 49.5158 8.41343 49.4813 8.47689C49.4513 8.53211 49.398 8.57085 49.3362 8.5823C49.2652 8.59547 49.1691 8.54496 48.977 8.44394L47.1551 7.48578C47.0983 7.45593 47.0699 7.441 47.04 7.43514C47.0135 7.42995 46.9863 7.42995 46.9598 7.43514C46.9299 7.441 46.9015 7.45593 46.8448 7.48578L45.0228 8.44394C44.8307 8.54496 44.7347 8.59547 44.6637 8.5823C44.6019 8.57085 44.5486 8.53211 44.5186 8.47689C44.4841 8.41343 44.5024 8.30647 44.5391 8.09257L44.887 6.06449C44.8978 6.00127 44.9032 5.96965 44.8996 5.9394C44.8963 5.91261 44.8879 5.88671 44.8748 5.86313C44.8599 5.8365 44.837 5.81412 44.791 5.76936L43.3168 4.33351C43.1614 4.18218 43.0838 4.10651 43.0743 4.03493C43.0661 3.97264 43.0864 3.90998 43.1296 3.86437C43.1793 3.81195 43.2866 3.79627 43.5012 3.7649L45.5392 3.46701C45.6026 3.45775 45.6343 3.45311 45.6619 3.44028C45.6863 3.42892 45.7083 3.41292 45.7267 3.39318C45.7474 3.37088 45.7616 3.34216 45.7899 3.28472L46.701 1.4389Z" fill="#F68026" stroke="#F68026" stroke-linecap="round" stroke-linejoin="round"/>
</g>
<defs>
<clipPath id="clip0_940_4713">
<rect width="10" height="10" fill="white"/>
</clipPath>
<clipPath id="clip1_940_4713">
<rect width="10" height="10" fill="white" transform="translate(14)"/>
</clipPath>
<clipPath id="clip2_940_4713">
<rect width="10" height="10" fill="white" transform="translate(28)"/>
</clipPath>
<clipPath id="clip3_940_4713">
<rect width="10" height="10" fill="white" transform="translate(42)"/>
</clipPath>
</defs>
</svg>
