<svg width="335" height="335" viewBox="0 0 335 335" fill="none" xmlns="http://www.w3.org/2000/svg">
<rect width="335" height="335" fill="#1E1E1E"/>
<g id="void-grey-stroke">
<rect width="335" height="335" fill="white"/>
<path id="up" opacity="0.6" d="M134.407 1.50003H266.9V67.1L100.895 67.1C82.2329 67.1 67.1 82.2329 67.1 100.895L67.1 266.9H1.50003V134.407L134.407 1.50003ZM267.9 234.105V68.1H333.5V200.593L200.593 333.5H68.1V267.9H234.105C252.767 267.9 267.9 252.767 267.9 234.105ZM317.352 333.5H268.597L333.5 268.597V317.352C333.5 326.265 326.265 333.5 317.352 333.5ZM66.4025 1.50003L1.50003 66.393V17.6476C1.50003 8.7355 8.7355 1.50003 17.6476 1.50003H66.4025Z" stroke="#D2D3D6"/>
</g>
</svg>
