<svg width="80" height="59" viewBox="0 0 80 59" fill="none" xmlns="http://www.w3.org/2000/svg">
<path fill-rule="evenodd" clip-rule="evenodd" d="M26.0371 26.7042L24.3341 24.315H25.3704C25.4552 24.315 25.5427 24.3104 25.6303 24.3033L25.6256 24.315H29.6761L29.8362 23.7869L29.996 24.315H39.2214L41.2866 29.6011L40.628 28.6036H33.0009V30.0211L32.0662 28.6036H17.4095L16.7684 29.3741V28.6036H12.1225V32.6198L7.86187 27.6273L26.0371 26.7042ZM31.0508 38.5646L32.4159 47.1904L23.1738 45.5708L16.7685 38.0653V36.9364L17.5809 38.5646H31.0508ZM32.9063 50.2878L34.2066 58.5L26.1956 49.1115L32.9063 50.2878ZM20.6752 31.8614L19.7822 32.807L20.6752 34.3089V31.8614ZM21.7208 20.6508L17.0923 14.1604L34.2973 11.7102L36.4784 17.2936H28.2571L27.8249 18.4478C27.7136 18.2649 27.5754 18.0951 27.4105 17.9424C26.9063 17.4744 26.2541 17.2936 25.5805 17.2936H21.7208V20.6508ZM15.1457 11.4304L7.35142 0.5H29.9177L33.1844 8.86185L15.1457 11.4304Z" fill="#FFEE00"/>
<path fill-rule="evenodd" clip-rule="evenodd" d="M7.5931 45.1415L0 14.293L39.6182 8.65175L80 14.293L71.9871 45.8839L39.9246 50.8073L7.5931 45.1415ZM10.0378 43.9788L3.01764 15.4576L39.6472 10.2419L76.982 15.4576L69.5739 44.6653L39.9303 49.2172L10.0378 43.9788Z" fill="#FF6600"/>
<path d="M22.8385 23.0552V18.3471H24.7151C25.0599 18.3471 25.3475 18.3987 25.5779 18.5012C25.8082 18.604 25.9814 18.7464 26.0974 18.929C26.2133 19.1097 26.2713 19.3179 26.2713 19.5539C26.2713 19.7379 26.2347 19.8995 26.1614 20.039C26.0882 20.1771 25.9875 20.2906 25.8594 20.3792C25.7327 20.4668 25.5878 20.5287 25.4245 20.5657V20.6116C25.603 20.6191 25.7701 20.6696 25.9257 20.7632C26.0829 20.8568 26.2103 20.9878 26.3079 21.1565C26.4056 21.3234 26.4544 21.5227 26.4544 21.754C26.4544 22.0039 26.3926 22.2267 26.269 22.4231C26.147 22.6178 25.9662 22.7715 25.7266 22.8851C25.4871 22.9986 25.1919 23.0552 24.841 23.0552H22.8385ZM23.8294 22.2412H24.6373C24.9134 22.2412 25.1148 22.1886 25.2415 22.0829C25.3681 21.9754 25.4314 21.833 25.4314 21.6551C25.4314 21.5248 25.4001 21.4099 25.3376 21.3102C25.275 21.2106 25.1858 21.1326 25.0698 21.0757C24.9554 21.0191 24.8188 20.9906 24.6602 20.9906H23.8294V22.2412ZM23.8294 20.3173H24.564C24.6998 20.3173 24.8204 20.2934 24.9256 20.2461C25.0324 20.197 25.1164 20.128 25.1774 20.039C25.2399 19.9504 25.2712 19.8436 25.2712 19.7197C25.2712 19.5496 25.2109 19.4123 25.0904 19.308C24.9714 19.2037 24.8021 19.1517 24.5823 19.1517H23.8294V20.3173ZM27.9071 23.0552H26.8451L28.4633 18.3471H29.7402L31.3559 23.0552H30.294L29.1199 19.4229H29.0834L27.9071 23.0552ZM27.8408 21.2045H30.3489V21.9814H27.8408V21.2045ZM31.1688 19.1678V18.3471H35.0183V19.1678H33.5834V23.0552H32.6037V19.1678H31.1688ZM35.6522 23.0552V18.3471H38.8104V19.1678H36.6432V20.2895H38.6478V21.1102H36.6432V22.2345H38.8193V23.0552H35.6522ZM39.598 23.0552V18.3471H41.4472C41.8011 18.3471 42.1033 18.4108 42.3535 18.5378C42.6054 18.6638 42.7967 18.8421 42.9278 19.0734C43.0607 19.3034 43.1269 19.5738 43.1269 19.8852C43.1269 20.1977 43.06 20.4668 42.9257 20.692C42.7914 20.9155 42.5969 21.0874 42.3421 21.207C42.0888 21.3266 41.782 21.386 41.422 21.386H40.1841V20.5863H41.2619C41.4511 20.5863 41.6084 20.56 41.7334 20.508C41.8585 20.4561 41.9513 20.3778 42.0126 20.2735C42.075 20.1692 42.1065 20.0401 42.1065 19.8852C42.1065 19.7286 42.075 19.597 42.0126 19.4898C41.9513 19.3824 41.8578 19.3012 41.731 19.2461C41.6059 19.1895 41.4479 19.161 41.2573 19.161H40.589V23.0552H39.598ZM42.1292 20.9127L43.2942 23.0552H42.2001L41.0606 20.9127H42.1292ZM44.8184 18.3471V23.0552H43.8274V18.3471H44.8184ZM46.4414 23.0552H45.3796L46.9977 18.3471H48.2746L49.8902 23.0552H48.8284L47.6542 19.4229H47.6177L46.4414 23.0552ZM46.3752 21.2045H48.8833V21.9814H46.3752V21.2045ZM52.8901 19.7012C52.8717 19.5158 52.793 19.3717 52.6542 19.2688C52.5153 19.1663 52.3271 19.1151 52.089 19.1151C51.9271 19.1151 51.7907 19.1379 51.6795 19.1838C51.5679 19.2283 51.4825 19.2905 51.423 19.3703C51.3652 19.45 51.3361 19.5404 51.3361 19.6415C51.333 19.7258 51.3507 19.7991 51.3886 19.8621C51.4283 19.9251 51.4825 19.9792 51.5512 20.0255C51.6199 20.0696 51.6993 20.1087 51.7893 20.1425C51.8793 20.1746 51.9753 20.2023 52.0777 20.2255L52.4986 20.3265C52.7031 20.3725 52.8908 20.4337 53.0616 20.5105C53.2324 20.5871 53.3805 20.6814 53.5056 20.7931C53.6306 20.9049 53.7277 21.0369 53.7964 21.1885C53.8666 21.3401 53.9024 21.5142 53.9038 21.7103C53.9024 21.9985 53.829 22.2484 53.6841 22.4598C53.5406 22.6697 53.3334 22.8331 53.0616 22.9495C52.7916 23.0644 52.466 23.1217 52.0844 23.1217C51.706 23.1217 51.3765 23.0637 51.0959 22.947C50.8167 22.8306 50.5985 22.6584 50.4412 22.4299C50.2856 22.2 50.2041 21.9156 50.1963 21.5772H51.1555C51.1661 21.7348 51.2111 21.8665 51.2904 21.9726C51.3712 22.0765 51.4786 22.1555 51.6129 22.2092C51.7489 22.2612 51.902 22.2875 52.0731 22.2875C52.2407 22.2875 52.3867 22.263 52.51 22.2138C52.6354 22.1647 52.7321 22.0964 52.8008 22.0092C52.8696 21.922 52.9036 21.8213 52.9036 21.7081C52.9036 21.6024 52.8724 21.5134 52.8101 21.4416C52.7488 21.3693 52.6588 21.3081 52.5397 21.2576C52.4224 21.207 52.2782 21.1608 52.1075 21.1195L51.5969 20.9906C51.2019 20.8942 50.8897 20.7433 50.6608 20.5379C50.432 20.3326 50.3186 20.0561 50.32 19.708C50.3186 19.4229 50.3941 19.1742 50.5464 18.961C50.7005 18.7478 50.912 18.5816 51.1806 18.462C51.4488 18.3424 51.7542 18.2826 52.0958 18.2826C52.4437 18.2826 52.7473 18.3424 53.0067 18.462C53.2675 18.5816 53.4705 18.7478 53.6154 18.961C53.7603 19.1742 53.8351 19.4208 53.8397 19.7012H52.8901Z" fill="#F0F1F5"/>
<path d="M13.2069 37.1137V29.5136H14.8066V32.8647H14.9063L17.6291 29.5136H19.5466L16.7388 32.9166L19.5798 37.1137H17.6661L15.5935 33.9889L14.8066 34.9538V37.1137H13.2069ZM20.3797 37.1137V29.5136H25.478V30.8382H21.9793V32.6493H25.2157V33.974H21.9793V35.7887H25.4928V37.1137H20.3797ZM33.0784 29.5136V37.1137H31.6966L28.4048 32.3301H28.3495V37.1137H26.7498V29.5136H28.1536L31.4196 34.2932H31.4862V29.5136H33.0784ZM40.7286 29.5136V37.1137H39.3471L36.0553 32.3301H35.9997V37.1137H34.4V29.5136H35.8041L39.0701 34.2932H39.1363V29.5136H40.7286ZM42.0505 37.1137V29.5136H47.1489V30.8382H43.6502V32.6493H46.8864V33.974H43.6502V35.7887H47.1634V37.1137H42.0505ZM51.103 37.1137H48.4205V29.5136H51.1249C51.886 29.5136 52.5411 29.6655 53.0902 29.9698C53.6398 30.2716 54.0621 30.7058 54.3576 31.2724C54.6556 31.839 54.8047 32.517 54.8047 33.3063C54.8047 34.0978 54.6556 34.7783 54.3576 35.3474C54.0621 35.9161 53.6373 36.3528 53.0832 36.6571C52.5312 36.9613 51.8711 37.1137 51.103 37.1137ZM50.0202 35.7367H51.0363C51.5093 35.7367 51.9069 35.6527 52.2296 35.4844C52.5545 35.3139 52.7986 35.0502 52.9609 34.6939C53.126 34.3352 53.2086 33.8725 53.2086 33.3063C53.2086 32.7447 53.126 32.2856 52.9609 31.9294C52.7986 31.5731 52.556 31.3108 52.2332 31.1425C51.9108 30.9745 51.5129 30.8902 51.0399 30.8902H50.0202V35.7367ZM55.0892 29.5136H56.8809L58.6061 32.7867H58.6801L60.4056 29.5136H62.1973L59.4376 34.427V37.1137H57.8489V34.427L55.0892 29.5136Z" fill="#F0F1F5"/>
</svg>
