<svg width="50" height="49" viewBox="0 0 50 49" fill="none" xmlns="http://www.w3.org/2000/svg">
<g opacity="0.1">
<path d="M8.69026 1.45806C8.86132 0.652797 9.6528 0.138677 10.4581 0.309745L47.647 8.21C48.4522 8.38107 48.9664 9.17255 48.7953 9.97781L40.895 47.1667C40.724 47.972 39.9325 48.4861 39.1272 48.315L1.93831 40.4148C1.13305 40.2437 0.618928 39.4522 0.789996 38.647L8.69026 1.45806Z" fill="url(#paint0_linear_554_22249)"/>
<g clip-path="url(#clip0_554_22249)">
<path d="M27.2854 12.5742C25.7439 12.2468 24.1542 12.2209 22.607 12.4978C21.0598 12.7748 19.5855 13.3492 18.2682 14.1882C15.6077 15.8828 13.7483 18.5525 13.0991 21.61C12.017 26.7056 14.4679 31.7441 18.8024 34.267C19.3697 34.4838 19.6334 34.1663 19.6995 33.8551L20.1132 31.9068C16.7148 31.908 16.4972 29.5244 16.4972 29.5244C16.2412 28.0725 15.5541 27.5531 15.5541 27.5531C14.6377 26.6115 15.7832 26.8788 15.7832 26.8788C16.9399 27.2088 17.327 28.4476 17.327 28.4476C17.9761 30.4168 19.8118 30.2644 20.5396 30.1298C20.8044 29.4029 21.2173 28.9605 21.6072 28.742C19.0625 27.9005 16.538 26.3282 17.4707 21.9359C17.7424 20.6562 18.4064 19.7249 19.3432 19.0684C19.287 18.7553 19.1308 17.4691 20.1068 16.0498C20.1068 16.0498 21.159 15.948 23.0852 17.9112C24.0663 17.8545 25.1028 17.9421 26.1005 18.1539C27.0983 18.3658 28.0808 18.707 28.9543 19.1575C31.5121 18.1465 32.432 18.6671 32.432 18.6671C32.7471 20.3605 32.0817 21.4723 31.9031 21.7355C32.4923 22.7161 32.7205 23.8368 32.4487 25.1165C31.5136 29.5204 28.5612 29.9055 25.8823 29.6378C26.229 30.0849 26.4671 30.8704 26.2394 31.9426L25.5686 35.1014C25.5025 35.4126 25.612 35.8214 26.2327 35.8448C31.2208 35.2896 35.4935 31.6908 36.5756 26.5952C36.8971 25.0813 36.9118 23.5177 36.6189 21.9938C36.326 20.4698 35.7312 19.0153 34.8686 17.7133C34.0059 16.4113 32.8922 15.2874 31.5911 14.4056C30.2899 13.5238 28.8269 12.9015 27.2854 12.5742Z" fill="#F0F1F5"/>
</g>
</g>
<defs>
<linearGradient id="paint0_linear_554_22249" x1="11.7851" y1="0.59165" x2="40.2303" y2="50.2958" gradientUnits="userSpaceOnUse">
<stop stop-color="#4A4F5C"/>
<stop offset="1" stop-color="#08090A"/>
</linearGradient>
<clipPath id="clip0_554_22249">
<rect width="28" height="28" fill="white" transform="translate(14.0061 7.70972) rotate(11.9887)"/>
</clipPath>
</defs>
</svg>
