<svg width="50" height="51" viewBox="0 0 50 51" fill="none" xmlns="http://www.w3.org/2000/svg">
<g opacity="0.1">
<path d="M0.368058 12.4444C0.164785 11.6467 0.6467 10.8352 1.44444 10.6319L38.286 1.24436C39.0838 1.04108 39.8953 1.523 40.0985 2.32074L49.4861 39.1623C49.6894 39.9601 49.2075 40.7716 48.4097 40.9748L11.5681 50.3624C10.7704 50.5657 9.95892 50.0838 9.75564 49.286L0.368058 12.4444Z" fill="url(#paint0_linear_554_22252)"/>
<path d="M24.0139 38.4195C26.1535 37.8743 27.4475 35.6953 26.9023 33.5556L25.9147 29.6795L22.0385 30.6672C19.8989 31.2124 18.6049 33.3914 19.1501 35.531C19.6953 37.6706 21.8743 38.9647 24.0139 38.4195Z" fill="#0ACF83"/>
<path d="M17.1747 27.7787C16.6295 25.6391 17.9235 23.4601 20.0632 22.9149L23.9393 21.9272L25.9147 29.6795L22.0385 30.6672C19.8989 31.2124 17.7199 29.9183 17.1747 27.7787Z" fill="#A259FF"/>
<path d="M15.1993 20.0264C14.6541 17.8868 15.9482 15.7078 18.0878 15.1626L21.964 14.1749L23.9393 21.9272L20.0632 22.9149C17.9235 23.4601 15.7445 22.166 15.1993 20.0264Z" fill="#F24E1E"/>
<path d="M21.964 14.1749L25.8401 13.1872C27.9797 12.642 30.1587 13.9361 30.7039 16.0757C31.2491 18.2153 29.9551 20.3943 27.8155 20.9395L23.9393 21.9272L21.964 14.1749Z" fill="#FF7262"/>
<path d="M32.6793 23.828C33.2245 25.9676 31.9304 28.1466 29.7908 28.6918C27.6512 29.237 25.4722 27.943 24.927 25.8033C24.3818 23.6637 25.6758 21.4847 27.8155 20.9395C29.9551 20.3943 32.1341 21.6884 32.6793 23.828Z" fill="#1ABCFE"/>
</g>
<defs>
<linearGradient id="paint0_linear_554_22252" x1="2.75906" y1="10.297" x2="50.276" y2="42.2622" gradientUnits="userSpaceOnUse">
<stop stop-color="#4A4F5C"/>
<stop offset="1" stop-color="#08090A"/>
</linearGradient>
</defs>
</svg>
