<svg width="50" height="51" viewBox="0 0 50 51" fill="none" xmlns="http://www.w3.org/2000/svg">
<g opacity="0.1">
<path d="M0.368058 12.4444C0.164785 11.6467 0.6467 10.8352 1.44444 10.6319L38.286 1.24436C39.0838 1.04108 39.8953 1.523 40.0985 2.32074L49.4861 39.1623C49.6894 39.9601 49.2075 40.7716 48.4097 40.9748L11.5681 50.3624C10.7704 50.5657 9.95892 50.0838 9.75564 49.286L0.368058 12.4444Z" fill="url(#paint0_linear_554_22232)"/>
<g clipPath="url(#clip0_554_22232)">
<mask id="mask0_554_22232" style="mask-type:luminance" maskUnits="userSpaceOnUse" x="10" y="11" width="30" height="30">
<path d="M10.335 17.1392L33.5913 11.2112L39.5193 34.4676L16.2629 40.3955L10.335 17.1392Z" fill="white"/>
</mask>
<g mask="url(#mask0_554_22232)">
<path d="M12.7067 25.522C12.7067 25.522 12.0363 25.2531 12.5747 24.5308L13.7926 22.698C13.7926 22.698 14.122 22.1021 14.7078 22.3988L32.1483 29.8415L33.5125 35.1938C33.5125 35.1938 33.7202 36.037 32.6291 36.2162L12.7067 25.522Z" fill="#5EADF2"/>
<path d="M16.9231 26.5429L14.0423 30.965C14.0423 30.965 13.7293 31.3545 14.2491 31.7764L16.4065 32.9403C16.4065 32.9403 16.9366 33.2853 17.4184 32.6153L20.627 28.5371L16.9231 26.5429ZM23.5355 24.8874L29.0775 17.7944L27.6717 12.4693C27.6717 12.4693 27.0794 11.3793 26.2516 12.2366L19.2251 23.0375L23.5355 24.8874Z" fill="#5EADF2"/>
<path d="M32.8538 35.8467C33.3444 36.1634 33.7765 35.9088 33.7765 35.9088L38.2579 31.911C38.7978 31.2677 38.5546 30.7022 38.5546 30.7022L34.473 14.6892C34.2937 13.9857 33.5484 13.9166 33.5484 13.9166L28.4918 12.7835C27.3515 12.3961 26.9027 13.3114 26.9027 13.3114C26.9027 13.3114 27.567 12.4764 28.2721 13.5567L33.669 34.7298C33.7061 34.8751 33.7126 35.0252 33.6869 35.169C33.6328 35.45 33.4367 35.7487 32.7985 35.8082L32.8538 35.8467Z" fill="#5EADF2"/>
</g>
</g>
</g>
<defs>
<linearGradient id="paint0_linear_554_22232" x1="2.75906" y1="10.297" x2="50.276" y2="42.2622" gradientUnits="userSpaceOnUse">
<stop stop-color="#4A4F5C"/>
<stop offset="1" stop-color="#08090A"/>
</linearGradient>
<clipPath id="clip0_554_22232">
<rect width="24" height="24" fill="white" transform="translate(10.335 17.1392) rotate(-14.3)"/>
</clipPath>
</defs>
</svg>
