<svg width="187" height="187" viewBox="0 0 187 187" fill="none" xmlns="http://www.w3.org/2000/svg">
<path fill-rule="evenodd" clip-rule="evenodd" d="M36.5544 149.6H37.4V150.446V186.154V187H38.2456H112.2L187 112.2V38.2456V37.4H186.154H150.446H149.6V36.5544V0.845641V0H148.754H74.8L0 74.8V148.754V149.6H0.845641H36.5544ZM0.845641 148.754H36.5544V56.0973C36.5544 45.3053 45.3053 36.5544 56.0973 36.5544H148.754V0.845641H75.1503L0.845641 75.1503V148.754ZM149.6 38.2456V37.4H148.754H56.0973C45.7723 37.4 37.4 45.7723 37.4 56.0973V148.754V149.6H38.2456L130.903 149.6C141.228 149.6 149.6 141.228 149.6 130.903L149.6 38.2456ZM150.446 38.2456L150.446 130.903C150.446 141.695 141.695 150.446 130.903 150.446L38.2456 150.446V186.154H111.85L186.154 111.85V38.2456H150.446ZM37.4055 0H36.2095H9.34864C4.18889 0 0 4.18889 0 9.34864V36.2095V37.4055L0.845641 36.5598L36.5598 0.845641L37.4055 0ZM35.3639 0.845641H9.34864C4.65592 0.845641 0.845641 4.65592 0.845641 9.34864V35.3639L35.3639 0.845641ZM187 149.6L186.154 150.446L150.44 186.154L149.595 187H150.791H177.651C182.811 187 187 182.811 187 177.651V150.796V149.6ZM186.154 151.641L151.636 186.154H177.651C182.344 186.154 186.154 182.344 186.154 177.651V151.641Z" fill="#F68026"/>
</svg>
