<svg width="219" height="57" viewBox="0 0 219 57" fill="none" xmlns="http://www.w3.org/2000/svg">
<g clip-path="url(#clip0_540_20224)">
<path d="M46.2326 0V11.4331H17.6489C14.4926 11.4331 11.9331 13.9926 11.9331 17.1489V45.7326H0.5V22.8663L23.3663 0H46.2326Z" fill="#F0F1F5"/>
<path d="M11.9331 57.1657V45.7325H40.5168C43.6731 45.7325 46.2325 43.1731 46.2325 40.0168V11.4331H57.6657V34.2994L34.7994 57.1657H11.9331Z" fill="#F0F1F5"/>
<path d="M11.9348 0L0.5 11.4348V2.85787C0.5 1.28054 1.78054 0 3.35787 0H11.9348Z" fill="#F0F1F5"/>
<path d="M57.6658 45.7327V54.3079C57.6658 55.8853 56.3852 57.1658 54.8079 57.1658H46.231L57.6658 45.7327Z" fill="#F0F1F5"/>
<path d="M80.5503 22.166L73.6724 0.618652H78.0125L83.7099 19.2732L82.4694 18.6829H85.6574L84.3885 19.2732L89.6424 0.618652H93.8342L87.4582 22.166H80.5519H80.5503Z" fill="#F0F1F5"/>
<path d="M107.028 22.7262C105.081 22.7262 103.393 22.3811 101.966 21.6941C100.539 21.0055 99.3582 20.1051 98.4245 18.993C97.4891 17.8809 96.7905 16.6803 96.3286 15.3915C95.8668 14.1026 95.635 12.8571 95.635 11.6566V11.008C95.635 9.68907 95.8718 8.37519 96.3436 7.06797C96.8155 5.75909 97.5291 4.57359 98.4829 3.51148C99.4366 2.4477 100.624 1.59734 102.039 0.958736C103.457 0.320135 105.119 0 107.028 0C108.937 0 110.57 0.320135 111.987 0.958736C113.404 1.59901 114.59 2.44936 115.543 3.51148C116.497 4.57359 117.211 5.75909 117.684 7.06797C118.156 8.37686 118.393 9.69074 118.393 11.008V11.6566C118.393 12.8571 118.161 14.1026 117.699 15.3915C117.237 16.6803 116.537 17.8809 115.603 18.993C114.67 20.1051 113.488 21.0055 112.062 21.6941C110.635 22.3827 108.957 22.7262 107.03 22.7262H107.028ZM107.028 18.8296C108.13 18.8296 109.119 18.6328 109.994 18.2393C110.87 17.8458 111.618 17.2989 112.237 16.6003C112.857 15.9017 113.329 15.1047 113.654 14.2093C113.979 13.3139 114.141 12.3652 114.141 11.3598C114.141 10.2777 113.979 9.2839 113.654 8.37852C113.331 7.47314 112.857 6.68614 112.237 6.01753C111.617 5.34892 110.865 4.82703 109.979 4.45354C109.094 4.08005 108.11 3.8933 107.028 3.8933C105.946 3.8933 104.932 4.08005 104.047 4.45354C103.162 4.82703 102.41 5.34892 101.789 6.01753C101.169 6.68614 100.697 7.47314 100.372 8.37852C100.047 9.2839 99.8851 10.2777 99.8851 11.3598C99.8851 12.3635 100.047 13.3139 100.372 14.2093C100.697 15.1047 101.169 15.9017 101.789 16.6003C102.41 17.2989 103.162 17.8458 104.047 18.2393C104.932 18.6328 105.926 18.8296 107.028 18.8296Z" fill="#F0F1F5"/>
<path d="M122.495 22.166V0.618652H126.686V22.166H122.495Z" fill="#F0F1F5"/>
<path d="M132.059 22.2844V0.470215H136.25V22.2844H132.059ZM135.66 22.2844V18.3877H140.117C141.239 18.3877 142.238 18.216 143.113 17.8709C143.989 17.5274 144.732 17.0405 145.343 16.4103C145.953 15.7817 146.42 15.038 146.745 14.181C147.068 13.3256 147.232 12.3752 147.232 11.3331C147.232 10.291 147.068 9.28225 146.745 8.42523C146.42 7.5682 145.953 6.83622 145.343 6.22597C144.732 5.61571 143.99 5.15385 143.113 4.83872C142.238 4.52359 141.239 4.36685 140.117 4.36685H135.66V0.470215H139.852C141.799 0.470215 143.502 0.755335 144.959 1.32724C146.415 1.89748 147.625 2.67948 148.591 3.67323C149.554 4.66698 150.278 5.79912 150.76 7.06799C151.242 8.33686 151.483 9.65074 151.483 11.008V11.6566C151.483 12.9555 151.242 14.2343 150.76 15.4932C150.278 16.7521 149.554 17.8942 148.591 18.9163C147.627 19.9401 146.416 20.7571 144.959 21.3657C143.503 21.9759 141.801 22.2811 139.852 22.2811H135.66V22.2844Z" fill="#F0F1F5"/>
<path d="M85.7459 57.1639C83.8968 57.1639 82.2677 56.8538 80.8605 56.2335C79.4532 55.6132 78.2727 54.7779 77.3173 53.7241C76.3636 52.672 75.645 51.4798 75.1631 50.1526C74.6812 48.8237 74.4395 47.4431 74.4395 46.0059V45.3573C74.4395 44 74.6762 42.6711 75.1481 41.3722C75.6199 40.0734 76.3136 38.9029 77.229 37.8591C78.1443 36.817 79.2748 35.985 80.6237 35.3647C81.9726 34.7445 83.5216 34.4343 85.2723 34.4343C87.1615 34.4343 88.8338 34.7845 90.2911 35.4814C91.7467 36.1801 92.9172 37.1538 93.8043 38.4043C94.6896 39.6549 95.2115 41.1055 95.3682 42.7578H91.1465C91.0098 41.8324 90.6646 41.0404 90.1144 40.3818C89.5625 39.7232 88.8688 39.2163 88.0335 38.8612C87.1965 38.506 86.2778 38.3293 85.274 38.3293C84.2703 38.3293 83.3599 38.506 82.5429 38.8612C81.7258 39.2147 81.0322 39.7165 80.462 40.3668C79.8901 41.0171 79.4532 41.7941 79.1481 42.6995C78.843 43.6049 78.6912 44.6086 78.6912 45.7107C78.6912 46.9112 78.858 47.9834 79.1931 48.9271C79.5266 49.8725 80.0001 50.6745 80.6104 51.3331C81.2206 51.9934 81.9576 52.4953 82.8246 52.8387C83.69 53.1839 84.6654 53.3556 85.7475 53.3556C87.1848 53.3556 88.4437 53.0555 89.5258 52.4552C90.6079 51.855 91.3949 51.073 91.8868 50.1093L91.1481 53.504V47.955H95.0148V52.737C94.0894 54.1343 92.8305 55.2214 91.2365 55.9984C89.6425 56.7754 87.8117 57.1639 85.7459 57.1639ZM85.0673 48.7804V45.6524H96.8155V48.7804H85.0673Z" fill="#F0F1F5"/>
<path d="M100.269 56.6038V35.0564H104.372V56.6038H100.269ZM103.782 38.5979V35.0564H113.316V38.5979H103.782ZM103.782 47.4233V43.8801H112.784V47.4233H103.782ZM103.782 56.6038V53.0623H113.552V56.6038H103.782Z" fill="#F0F1F5"/>
<path d="M117.859 56.6038V35.0564H124.737L133.799 53.1207H134.773L134.183 53.6526V35.0564H138.138V56.6038H131.232L122.17 38.5395H121.166L121.756 38.0076V56.6038H117.859Z" fill="#F0F1F5"/>
<path d="M143.452 56.6038V35.0564H147.555V56.6038H143.452ZM146.965 38.5979V35.0564H156.499V38.5979H146.965ZM146.965 47.4233V43.8801H155.967V47.4233H146.965ZM146.965 56.6038V53.0623H156.736V56.6038H146.965Z" fill="#F0F1F5"/>
<path d="M168.217 57.1639C166.308 57.1639 164.699 56.8588 163.39 56.2485C162.081 55.6382 161.083 54.7979 160.394 53.7258C159.705 52.6537 159.362 51.4381 159.362 50.0792H163.465C163.465 50.6511 163.622 51.2064 163.937 51.7466C164.252 52.2885 164.759 52.7253 165.458 53.0605C166.156 53.3956 167.077 53.5624 168.217 53.5624C169.239 53.5624 170.096 53.4156 170.785 53.1205C171.474 52.8254 171.985 52.4369 172.321 51.955C172.654 51.4732 172.822 50.9263 172.822 50.316C172.822 49.549 172.499 48.9338 171.849 48.4719C171.2 48.01 170.196 47.7182 168.837 47.6015L166.948 47.4531C164.882 47.2764 163.233 46.6311 162.005 45.519C160.774 44.4085 160.16 42.9362 160.16 41.1055C160.16 39.7282 160.486 38.5427 161.134 37.549C161.783 36.5552 162.693 35.7882 163.865 35.2463C165.036 34.7044 166.408 34.4343 167.982 34.4343C169.556 34.4343 171.023 34.7194 172.204 35.2897C173.384 35.8616 174.3 36.6619 174.948 37.6957C175.599 38.7278 175.922 39.9433 175.922 41.3406H171.819C171.819 40.7503 171.675 40.2051 171.39 39.7015C171.105 39.1997 170.682 38.7978 170.121 38.491C169.561 38.1859 168.847 38.0342 167.98 38.0342C167.113 38.0342 166.465 38.1726 165.915 38.4477C165.363 38.7228 164.951 39.0963 164.674 39.5682C164.399 40.04 164.261 40.5519 164.261 41.1038C164.261 41.7741 164.507 42.3577 164.999 42.8595C165.491 43.3614 166.268 43.6515 167.332 43.7299L169.221 43.9066C170.757 44.025 172.104 44.3485 173.264 44.8804C174.425 45.4106 175.325 46.1309 175.965 47.0346C176.604 47.94 176.924 49.0321 176.924 50.311C176.924 51.6682 176.571 52.8637 175.862 53.8975C175.153 54.9296 174.145 55.7316 172.836 56.3019C171.527 56.8721 169.988 57.1589 168.217 57.1589V57.1639Z" fill="#F0F1F5"/>
<path d="M180.821 56.6038V35.0564H185.013V56.6038H180.821Z" fill="#F0F1F5"/>
<path d="M197.733 57.1639C195.824 57.1639 194.215 56.8588 192.906 56.2485C191.597 55.6382 190.598 54.7979 189.91 53.7258C189.221 52.6537 188.877 51.4381 188.877 50.0792H192.981C192.981 50.6511 193.138 51.2064 193.453 51.7466C193.768 52.2885 194.275 52.7253 194.973 53.0605C195.672 53.3956 196.592 53.5624 197.733 53.5624C198.755 53.5624 199.612 53.4156 200.301 53.1205C200.989 52.8254 201.501 52.4369 201.836 51.955C202.17 51.4732 202.338 50.9263 202.338 50.316C202.338 49.549 202.015 48.9338 201.364 48.4719C200.716 48.01 199.712 47.7182 198.353 47.6015L196.464 47.4531C194.398 47.2764 192.749 46.6311 191.52 45.519C190.29 44.4085 189.676 42.9362 189.676 41.1055C189.676 39.7282 190.001 38.5427 190.65 37.549C191.298 36.5552 192.209 35.7882 193.381 35.2463C194.551 34.7044 195.924 34.4343 197.498 34.4343C199.072 34.4343 200.539 34.7194 201.72 35.2897C202.9 35.8616 203.815 36.6619 204.464 37.6957C205.114 38.7278 205.438 39.9433 205.438 41.3406H201.334C201.334 40.7503 201.191 40.2051 200.906 39.7015C200.621 39.1997 200.197 38.7978 199.637 38.491C199.077 38.1859 198.363 38.0342 197.496 38.0342C196.629 38.0342 195.98 38.1726 195.43 38.4477C194.878 38.7228 194.466 39.0963 194.19 39.5682C193.915 40.04 193.776 40.5519 193.776 41.1038C193.776 41.7741 194.023 42.3577 194.515 42.8595C195.007 43.3614 195.784 43.6515 196.847 43.7299L198.737 43.9066C200.272 44.025 201.619 44.3485 202.78 44.8804C203.94 45.4106 204.841 46.1309 205.481 47.0346C206.12 47.94 206.44 49.0321 206.44 50.311C206.44 51.6682 206.086 52.8637 205.378 53.8975C204.669 54.9296 203.66 55.7316 202.351 56.3019C201.043 56.8721 199.504 57.1589 197.733 57.1589V57.1639Z" fill="#F0F1F5"/>
<path d="M207.792 35.3578V34.4358H211.954V35.3578H207.792ZM209.349 39.8231V35.2111H210.396V39.8231H209.349Z" fill="#F0F1F5"/>
<path d="M212.787 39.8213V34.4341H214.22L215.57 37.6504H215.704L217.046 34.4341H218.5V39.8213H217.459V35.2244L217.593 35.2394L216.139 38.7226H215.068L213.608 35.2394L213.748 35.2244V39.8213H212.789H212.787Z" fill="#F0F1F5"/>
</g>
<defs>
<clipPath id="clip0_540_20224">
<rect width="218" height="57" fill="white" transform="translate(0.5)"/>
</clipPath>
</defs>
</svg>
