<svg width="327" height="86" viewBox="0 0 327 86" fill="none" xmlns="http://www.w3.org/2000/svg">
<g clip-path="url(#clip0_1174_5288)">
<path d="M68.5412 0V17.1353H25.7017C20.9712 17.1353 17.1353 20.9712 17.1353 25.7017V68.5412H0V34.2706L34.2706 0H68.5412Z" fill="#0E45EB"/>
<path d="M17.1353 85.6764V68.5411H59.9747C64.7052 68.5411 68.5411 64.7052 68.5411 59.9747V17.1353H85.6764V51.4058L51.4058 85.6764H17.1353Z" fill="#0E45EB"/>
<path d="M17.1378 0L0 17.1378V4.2832C0 1.91919 1.91919 0 4.2832 0H17.1378Z" fill="#0E45EB"/>
<path d="M85.6764 68.5411V81.3932C85.6764 83.7572 83.7572 85.6764 81.3932 85.6764H68.5386L85.6764 68.5411Z" fill="#0E45EB"/>
<path d="M119.975 33.221L109.667 0.927124H116.171L124.71 28.8854L122.851 28.0007H127.629L125.727 28.8854L133.601 0.927124H139.884L130.328 33.221H119.977H119.975Z" fill="#0E45EB"/>
<path d="M159.658 34.0607C156.739 34.0607 154.21 33.5434 152.071 32.5138C149.932 31.4818 148.163 30.1323 146.763 28.4655C145.361 26.7987 144.314 24.9995 143.622 23.0678C142.93 21.1361 142.583 19.2694 142.583 17.4702V16.4981C142.583 14.5214 142.937 12.5522 143.645 10.593C144.352 8.63137 145.421 6.85462 146.851 5.26279C148.28 3.66846 150.059 2.39399 152.181 1.4369C154.305 0.479798 156.797 0 159.658 0C162.519 0 164.966 0.479798 167.09 1.4369C169.214 2.39649 170.991 3.67096 172.42 5.26279C173.849 6.85462 174.919 8.63137 175.629 10.593C176.336 12.5547 176.691 14.5239 176.691 16.4981V17.4702C176.691 19.2694 176.343 21.1361 175.651 23.0678C174.959 24.9995 173.909 26.7987 172.51 28.4655C171.111 30.1323 169.339 31.4818 167.202 32.5138C165.063 33.5459 162.549 34.0607 159.66 34.0607H159.658ZM159.658 28.2206C161.31 28.2206 162.792 27.9258 164.103 27.336C165.415 26.7463 166.537 25.9266 167.465 24.8795C168.394 23.8325 169.101 22.638 169.589 21.296C170.076 19.9541 170.318 18.5322 170.318 17.0253C170.318 15.4035 170.076 13.9141 169.589 12.5572C169.104 11.2003 168.394 10.0208 167.465 9.01871C166.535 8.01663 165.408 7.23446 164.081 6.67469C162.754 6.11493 161.28 5.83505 159.658 5.83505C158.036 5.83505 156.517 6.11493 155.19 6.67469C153.863 7.23446 152.736 8.01663 151.806 9.01871C150.877 10.0208 150.169 11.2003 149.682 12.5572C149.195 13.9141 148.952 15.4035 148.952 17.0253C148.952 18.5297 149.195 19.9541 149.682 21.296C150.169 22.638 150.877 23.8325 151.806 24.8795C152.736 25.9266 153.863 26.7463 155.19 27.336C156.517 27.9258 158.006 28.2206 159.658 28.2206Z" fill="#0E45EB"/>
<path d="M182.838 33.221V0.927124H189.121V33.221H182.838Z" fill="#0E45EB"/>
<path d="M197.172 33.3985V0.704712H203.454V33.3985H197.172ZM202.57 33.3985V27.5584H209.249C210.931 27.5584 212.428 27.301 213.74 26.7837C215.052 26.269 216.166 25.5393 217.081 24.5947C217.996 23.6526 218.695 22.538 219.183 21.2536C219.667 19.9716 219.912 18.5472 219.912 16.9854C219.912 15.4235 219.667 13.9117 219.183 12.6272C218.695 11.3427 217.996 10.2457 217.081 9.33108C216.166 8.41647 215.054 7.72426 213.74 7.25196C212.428 6.77966 210.931 6.54476 209.249 6.54476H202.57V0.704712H208.852C211.771 0.704712 214.322 1.13203 216.506 1.98917C218.688 2.84381 220.502 4.01582 221.949 5.50519C223.393 6.99457 224.478 8.69135 225.2 10.5931C225.922 12.4948 226.285 14.4639 226.285 16.4981V17.4702C226.285 19.4168 225.922 21.3335 225.2 23.2202C224.478 25.107 223.393 26.8187 221.949 28.3506C220.505 29.8849 218.69 31.1094 216.506 32.0215C214.325 32.9362 211.773 33.3935 208.852 33.3935H202.57V33.3985Z" fill="#0E45EB"/>
<path d="M127.761 85.674C124.99 85.674 122.548 85.2091 120.439 84.2795C118.33 83.3499 116.561 82.098 115.129 80.5186C113.7 78.9418 112.623 77.155 111.9 75.1659C111.178 73.1742 110.816 71.1051 110.816 68.951V67.9789C110.816 65.9448 111.171 63.9531 111.878 62.0064C112.585 60.0597 113.625 58.3055 114.997 56.7411C116.369 55.1793 118.063 53.9323 120.085 53.0027C122.106 52.0731 124.428 51.6083 127.052 51.6083C129.883 51.6083 132.389 52.1331 134.573 53.1776C136.755 54.2247 138.509 55.6841 139.839 57.5583C141.166 59.4325 141.948 61.6066 142.183 64.083H135.855C135.65 62.6961 135.133 61.5091 134.309 60.522C133.481 59.5349 132.442 58.7753 131.19 58.243C129.935 57.7107 128.558 57.4458 127.054 57.4458C125.55 57.4458 124.185 57.7107 122.961 58.243C121.736 58.7728 120.697 59.5249 119.842 60.4995C118.985 61.4741 118.33 62.6386 117.873 63.9956C117.416 65.3525 117.188 66.8569 117.188 68.5087C117.188 70.3079 117.438 71.9147 117.94 73.3291C118.44 74.7461 119.15 75.948 120.065 76.9351C120.979 77.9247 122.084 78.6769 123.383 79.1917C124.68 79.709 126.142 79.9664 127.764 79.9664C129.918 79.9664 131.805 79.5165 133.426 78.6169C135.048 77.7173 136.228 76.5453 136.965 75.1009L135.858 80.1888V71.8723H141.653V79.0392C140.266 81.1334 138.379 82.7627 135.99 83.9272C133.601 85.0917 130.857 85.674 127.761 85.674ZM126.744 73.1092V68.4212H144.352V73.1092H126.744Z" fill="#0E45EB"/>
<path d="M149.527 84.8343V52.5404H155.677V84.8343H149.527ZM154.793 57.8482V52.5404H169.082V57.8482H154.793ZM154.793 71.0751V65.7648H168.284V71.0751H154.793ZM154.793 84.8343V79.5266H169.436V84.8343H154.793Z" fill="#0E45EB"/>
<path d="M175.891 84.8343V52.5404H186.199L199.781 79.614H201.24L200.356 80.4112V52.5404H206.283V84.8343H195.933L182.351 57.7607H180.847L181.731 56.9635V84.8343H175.891Z" fill="#0E45EB"/>
<path d="M214.248 84.8343V52.5404H220.397V84.8343H214.248ZM219.513 57.8482V52.5404H233.802V57.8482H219.513ZM219.513 71.0751V65.7648H233.005V71.0751H219.513ZM219.513 84.8343V79.5266H234.157V84.8343H219.513Z" fill="#0E45EB"/>
<path d="M251.364 85.674C248.503 85.674 246.091 85.2166 244.13 84.302C242.168 83.3874 240.671 82.1279 239.639 80.5211C238.607 78.9143 238.092 77.0926 238.092 75.0559H244.242C244.242 75.9131 244.477 76.7452 244.949 77.5549C245.422 78.367 246.181 79.0217 247.228 79.524C248.275 80.0263 249.655 80.2762 251.364 80.2762C252.896 80.2762 254.181 80.0563 255.213 79.614C256.245 79.1717 257.012 78.5894 257.514 77.8672C258.014 77.145 258.266 76.3254 258.266 75.4108C258.266 74.2613 257.782 73.3391 256.807 72.6469C255.835 71.9547 254.33 71.5174 252.294 71.3425L249.463 71.1201C246.366 70.8552 243.895 69.8881 242.053 68.2213C240.209 66.557 239.289 64.3504 239.289 61.6066C239.289 59.5424 239.777 57.7657 240.749 56.2763C241.721 54.7869 243.085 53.6374 244.842 52.8253C246.596 52.0131 248.653 51.6083 251.012 51.6083C253.371 51.6083 255.57 52.0356 257.339 52.8902C259.108 53.7474 260.48 54.9469 261.452 56.4962C262.427 58.0431 262.912 59.8648 262.912 61.9589H256.762C256.762 61.0743 256.547 60.2571 256.12 59.5025C255.692 58.7503 255.058 58.148 254.218 57.6882C253.378 57.2309 252.309 57.0035 251.009 57.0035C249.71 57.0035 248.738 57.2109 247.913 57.6232C247.086 58.0356 246.469 58.5953 246.054 59.3025C245.642 60.0097 245.434 60.7769 245.434 61.6041C245.434 62.6087 245.804 63.4833 246.541 64.2355C247.278 64.9876 248.443 65.4225 250.037 65.5399L252.869 65.8048C255.17 65.9822 257.189 66.467 258.929 67.2642C260.668 68.0589 262.017 69.1384 262.977 70.4928C263.934 71.8498 264.414 73.4866 264.414 75.4033C264.414 77.4374 263.884 79.2292 262.822 80.7785C261.76 82.3254 260.248 83.5274 258.286 84.382C256.325 85.2366 254.018 85.6665 251.364 85.6665V85.674Z" fill="#0E45EB"/>
<path d="M270.254 84.8343V52.5404H276.536V84.8343H270.254Z" fill="#0E45EB"/>
<path d="M295.601 85.674C292.739 85.674 290.328 85.2166 288.366 84.302C286.404 83.3874 284.908 82.1279 283.875 80.5211C282.843 78.9143 282.329 77.0926 282.329 75.0559H288.479C288.479 75.9131 288.713 76.7452 289.186 77.5549C289.658 78.367 290.418 79.0217 291.465 79.524C292.512 80.0263 293.891 80.2762 295.601 80.2762C297.132 80.2762 298.417 80.0563 299.449 79.614C300.481 79.1717 301.248 78.5894 301.75 77.8672C302.25 77.145 302.503 76.3254 302.503 75.4108C302.503 74.2613 302.018 73.3391 301.043 72.6469C300.071 71.9547 298.567 71.5174 296.53 71.3425L293.699 71.1201C290.603 70.8552 288.131 69.8881 286.289 68.2213C284.445 66.557 283.526 64.3504 283.526 61.6066C283.526 59.5424 284.013 57.7657 284.985 56.2763C285.957 54.7869 287.322 53.6374 289.078 52.8253C290.833 52.0131 292.889 51.6083 295.248 51.6083C297.607 51.6083 299.806 52.0356 301.576 52.8902C303.345 53.7474 304.717 54.9469 305.689 56.4962C306.663 58.0431 307.148 59.8648 307.148 61.9589H300.998C300.998 61.0743 300.783 60.2571 300.356 59.5025C299.929 58.7503 299.294 58.148 298.454 57.6882C297.615 57.2309 296.545 57.0035 295.246 57.0035C293.946 57.0035 292.974 57.2109 292.149 57.6232C291.322 58.0356 290.705 58.5953 290.29 59.3025C289.878 60.0097 289.671 60.7769 289.671 61.6041C289.671 62.6087 290.04 63.4833 290.778 64.2355C291.515 64.9876 292.679 65.4225 294.274 65.5399L297.105 65.8048C299.406 65.9822 301.426 66.467 303.165 67.2642C304.904 68.0589 306.254 69.1384 307.213 70.4928C308.17 71.8498 308.65 73.4866 308.65 75.4033C308.65 77.4374 308.12 79.2292 307.058 80.7785C305.996 82.3254 304.484 83.5274 302.523 84.382C300.561 85.2366 298.254 85.6665 295.601 85.6665V85.674Z" fill="#0E45EB"/>
<path d="M310.677 52.9928V51.6108H316.914V52.9928H310.677ZM313.011 59.6849V52.7729H314.58V59.6849H313.011Z" fill="#0E45EB"/>
<path d="M318.164 59.6824V51.6083H320.31L322.334 56.4288H322.534L324.546 51.6083H326.725V59.6824H325.166V52.7928L325.366 52.8153L323.186 58.0356H321.582L319.393 52.8153L319.603 52.7928V59.6824H318.166H318.164Z" fill="#0E45EB"/>
</g>
<defs>
<clipPath id="clip0_1174_5288">
<rect width="326.725" height="85.6765" fill="white"/>
</clipPath>
</defs>
</svg>
