<svg width="157" height="157" viewBox="0 0 157 157" fill="none" xmlns="http://www.w3.org/2000/svg">
<path d="M125.514 0.143555V31.4861H47.1551C38.5024 31.4861 31.4861 38.5024 31.4861 47.1551V125.514H0.143555V62.8287L62.8287 0.143555H125.514Z" fill="#F68026"/>
<path d="M31.4861 156.856V125.514L109.845 125.514C118.497 125.514 125.514 118.497 125.514 109.845L125.514 31.4861H156.856V94.1713L94.1713 156.856H31.4861Z" fill="#F68026"/>
<path d="M31.4907 0.143555L0.143555 31.4907V7.97805C0.143555 3.65399 3.65399 0.143555 7.97805 0.143555H31.4907Z" fill="#F68026"/>
<path d="M156.856 125.514V149.022C156.856 153.346 153.346 156.856 149.022 156.856H125.509L156.856 125.514Z" fill="#F68026"/>
</svg>
