<svg width="157" height="157" viewBox="0 0 157 157" fill="none" xmlns="http://www.w3.org/2000/svg">
<path d="M125.6 0V31.4H47.0977C38.4292 31.4 31.4 38.4292 31.4 47.0977V125.6H0V62.8L62.8 0H125.6Z" fill="#0E45EB"/>
<path d="M31.4 157V125.6L109.902 125.6C118.571 125.6 125.6 118.571 125.6 109.902L125.6 31.4H157V94.2L94.2 157H31.4Z" fill="#0E45EB"/>
<path d="M31.4046 0L0 31.4046V7.84885C0 3.51687 3.51687 0 7.84885 0H31.4046Z" fill="#0E45EB"/>
<path d="M157 125.6V149.151C157 153.483 153.483 157 149.151 157H125.595L157 125.6Z" fill="#0E45EB"/>
</svg>
