<svg width="175" height="176" viewBox="0 0 175 176" fill="none" xmlns="http://www.w3.org/2000/svg">
<path d="M140 0.5V35.5H52.4974C42.8351 35.5 35 43.3351 35 52.9974V140.5H0V70.5L70 0.5H140Z" fill="#F0F1F5"/>
<path d="M35 175.5V140.5L122.503 140.5C132.165 140.5 140 132.665 140 123.003L140 35.5H175V105.5L105 175.5H35Z" fill="#F0F1F5"/>
<path d="M35.0051 0.5L0 35.5051V9.24872C0 4.42008 3.92008 0.5 8.74872 0.5H35.0051Z" fill="#F0F1F5"/>
<path d="M175 140.5V166.751C175 171.58 171.08 175.5 166.251 175.5H139.995L175 140.5Z" fill="#F0F1F5"/>
</svg>
